<svg width="130" height="38" viewBox="0 0 130 38" fill="none" xmlns="http://www.w3.org/2000/svg">
<g clip-path="url(#clip0_852_349)">
<path d="M18.1836 38C28.2261 38 36.3672 29.8589 36.3672 19.8164C36.3672 9.77388 28.2261 1.63281 18.1836 1.63281C8.14107 1.63281 0 9.77388 0 19.8164C0 29.8589 8.14107 38 18.1836 38Z" fill="#EFEFEF" fill-opacity="0.2"/>
<path d="M13.3078 22.1606L1.17966 36.4983C1.10484 36.5867 1.11026 36.7177 1.1922 36.7996C1.23547 36.8429 1.29254 36.8648 1.34969 36.8648C1.40068 36.8648 1.45174 36.8473 1.49345 36.8122L15.8298 24.6849C14.8841 23.956 14.0358 23.107 13.3078 22.1606Z" fill="#FFD00D"/>
<path d="M11.3106 18.5505L3.39255 27.9112C3.31773 27.9995 3.32315 28.1305 3.40509 28.2124C3.44836 28.2557 3.50543 28.2776 3.56258 28.2776C3.61357 28.2776 3.66463 28.2602 3.70634 28.225L12.4179 20.8558C11.9807 20.1282 11.6086 19.3572 11.3106 18.5505Z" fill="#FFD00D"/>
<path d="M17.3423 25.6992L10.0722 34.2937C9.99742 34.3821 10.0028 34.5131 10.0848 34.595C10.128 34.6383 10.1851 34.6602 10.2423 34.6602C10.2932 34.6602 10.3443 34.6428 10.386 34.6076L19.6585 26.764C18.8494 26.4799 18.0744 26.1227 17.3423 25.6992Z" fill="#FFD00D"/>
<path d="M24.1953 27.5352C23.3713 27.5352 22.5641 27.4621 21.7796 27.3223L16.0097 34.1433C15.9349 34.2317 15.9403 34.3627 16.0223 34.4446C16.0655 34.4879 16.1226 34.5098 16.1798 34.5098C16.2307 34.5098 16.2818 34.4924 16.3235 34.4572L24.5111 27.5313C24.4062 27.5336 24.3009 27.5352 24.1953 27.5352Z" fill="#FFD00D"/>
<path d="M10.4649 13.8048C10.4649 13.604 10.4701 13.4043 10.4787 13.2056L3.69137 21.2294C3.61656 21.3178 3.62198 21.4487 3.70392 21.5306C3.74719 21.5739 3.80426 21.5958 3.86141 21.5958C3.9124 21.5958 3.96346 21.5784 4.00517 21.5432L10.6309 15.9385C10.5219 15.2429 10.4649 14.5304 10.4649 13.8048Z" fill="#FFD00D"/>
<path d="M24.1953 27.6094C31.8194 27.6094 38 21.4288 38 13.8047C38 6.18057 31.8194 0 24.1953 0C16.5712 0 10.3906 6.18057 10.3906 13.8047C10.3906 21.4288 16.5712 27.6094 24.1953 27.6094Z" fill="#EEF6FF"/>
<path d="M11.9872 20.2528L14.4253 20.639C13.2747 18.624 12.6172 16.2911 12.6172 13.8046C12.6172 13.5679 12.6235 13.3328 12.6352 13.099L12.3554 12.2124L10.4044 13.2066C10.3958 13.4049 10.3906 13.6042 10.3906 13.8046C10.3906 16.134 10.9684 18.3281 11.9872 20.2528Z" fill="#D9EAFC"/>
<path d="M20.0084 1.57845L19.1471 0.952637C17.416 1.63322 15.8563 2.65403 14.5488 3.93185L14.9066 6.19063C16.1882 4.25626 17.944 2.66368 20.0084 1.57845Z" fill="#D9EAFC"/>
<path d="M19.2583 26.6992C20.7915 27.2866 22.4557 27.6093 24.1954 27.6093C24.5703 27.6093 24.9415 27.5939 25.3087 27.5646C23.0263 27.3824 20.9007 26.6444 19.0664 25.4871L19.2583 26.6992Z" fill="#D9EAFC"/>
<path d="M36.0458 12.1794L37.9848 13.1674C37.8219 9.58342 36.2926 6.35595 33.9053 3.99319L33.452 6.85566L26.9807 2.59743L29.2444 0.952746C27.6806 0.337844 25.9774 0 24.1953 0C22.4133 0 20.7101 0.337844 19.1463 0.952672L21.41 2.59736L15.0043 6.81246L14.548 3.93181C12.1162 6.30837 10.5591 9.5757 10.4043 13.2066L12.3554 12.2124L15.0461 20.7373L11.9872 20.2528C13.5419 23.1903 16.1254 25.499 19.2582 26.6992L18.9361 24.6659H29.443L29.1202 26.7038C32.2554 25.506 34.8416 23.1986 36.3988 20.2613L33.3419 20.7454L36.0458 12.1794ZM32.4431 20.888L30.5703 21.1846L27.4152 18.0294L28.9614 13.2708L33.2866 10.7736L35.31 11.8046L32.4431 20.888ZM33.3121 7.73849L32.9495 10.0278L28.7884 12.4303L24.6026 9.38919V4.32517L26.2766 3.10888L33.3121 7.73849ZM22.1141 3.10895L23.7882 4.32525V9.38912L19.6189 12.4182L15.5171 10.05L15.1442 7.69537L22.1141 3.10895ZM13.0912 11.8376L15.1592 10.7839L19.4207 13.2442L20.9607 17.9834L17.7747 21.1695L15.9452 20.8798L13.0912 11.8376ZM18.8071 23.8515L18.4567 21.6391L21.5797 18.5161H26.7501L29.9157 21.6817L29.572 23.8514H18.8071V23.8515Z" fill="#1A2B63"/>
</g>
<path d="M119.531 6.73743V4.30566H130.002V6.73743H126.246V16.6944H123.294V6.73743H119.531Z" fill="white"/>
<path d="M118.754 10.5C118.754 11.863 118.492 13.0184 117.967 13.9661C117.443 14.9138 116.733 15.6337 115.838 16.1257C114.947 16.6177 113.947 16.8637 112.838 16.8637C111.725 16.8637 110.723 16.6157 109.831 16.1196C108.94 15.6236 108.232 14.9038 107.708 13.9601C107.188 13.0124 106.928 11.859 106.928 10.5C106.928 9.13688 107.188 7.98149 107.708 7.03378C108.232 6.08608 108.94 5.36623 109.831 4.87423C110.723 4.38223 111.725 4.13623 112.838 4.13623C113.947 4.13623 114.947 4.38223 115.838 4.87423C116.733 5.36623 117.443 6.08608 117.967 7.03378C118.492 7.98149 118.754 9.13688 118.754 10.5ZM115.693 10.5C115.693 9.6934 115.578 9.01186 115.348 8.45534C115.122 7.89881 114.796 7.47739 114.368 7.19106C113.945 6.90473 113.435 6.76157 112.838 6.76157C112.245 6.76157 111.735 6.90473 111.307 7.19106C110.88 7.47739 110.551 7.89881 110.321 8.45534C110.095 9.01186 109.983 9.6934 109.983 10.5C109.983 11.3065 110.095 11.9881 110.321 12.5446C110.551 13.1011 110.88 13.5225 111.307 13.8089C111.735 14.0952 112.245 14.2383 112.838 14.2383C113.435 14.2383 113.945 14.0952 114.368 13.8089C114.796 13.5225 115.122 13.1011 115.348 12.5446C115.578 11.9881 115.693 11.3065 115.693 10.5Z" fill="white"/>
<path d="M105.312 10.5C105.312 11.863 105.05 13.0184 104.526 13.9661C104.002 14.9138 103.292 15.6337 102.397 16.1257C101.506 16.6177 100.505 16.8637 99.3964 16.8637C98.2833 16.8637 97.2812 16.6157 96.3899 16.1196C95.4987 15.6236 94.7909 14.9038 94.2667 13.9601C93.7464 13.0124 93.4863 11.859 93.4863 10.5C93.4863 9.13688 93.7464 7.98149 94.2667 7.03378C94.7909 6.08608 95.4987 5.36623 96.3899 4.87423C97.2812 4.38223 98.2833 4.13623 99.3964 4.13623C100.505 4.13623 101.506 4.38223 102.397 4.87423C103.292 5.36623 104.002 6.08608 104.526 7.03378C105.05 7.98149 105.312 9.13688 105.312 10.5ZM102.252 10.5C102.252 9.6934 102.137 9.01186 101.907 8.45534C101.681 7.89881 101.354 7.47739 100.927 7.19106C100.503 6.90473 99.9932 6.76157 99.3964 6.76157C98.8035 6.76157 98.2934 6.90473 97.8659 7.19106C97.4385 7.47739 97.1098 7.89881 96.8799 8.45534C96.6541 9.01186 96.5412 9.6934 96.5412 10.5C96.5412 11.3065 96.6541 11.9881 96.8799 12.5446C97.1098 13.1011 97.4385 13.5225 97.8659 13.8089C98.2934 14.0952 98.8035 14.2383 99.3964 14.2383C99.9932 14.2383 100.503 14.0952 100.927 13.8089C101.354 13.5225 101.681 13.1011 101.907 12.5446C102.137 11.9881 102.252 11.3065 102.252 10.5Z" fill="white"/>
<path d="M83.6543 16.6944V4.30566H92.111V6.73743H86.6486V9.27808H91.5727V11.7159H86.6486V16.6944H83.6543Z" fill="white"/>
<path d="M69.5326 16.6944H66.3145L70.4944 4.30566H74.4808L78.6608 16.6944H75.4426L72.533 7.42703H72.4362L69.5326 16.6944ZM69.1031 11.8187H75.8298V14.0932H69.1031V11.8187Z" fill="white"/>
<path d="M55.5742 16.6944V4.30566H60.6918C61.6194 4.30566 62.4199 4.47302 63.0933 4.80775C63.7708 5.13843 64.2931 5.6143 64.6601 6.23535C65.0271 6.85236 65.2105 7.58431 65.2105 8.4312C65.2105 9.29018 65.023 10.0201 64.648 10.621C64.2729 11.2178 63.7406 11.6736 63.051 11.9881C62.3614 12.2986 61.5447 12.4539 60.6011 12.4539H57.3648V10.0947H60.0446C60.4962 10.0947 60.8733 10.0362 61.1757 9.91929C61.4822 9.79831 61.7141 9.61683 61.8714 9.37487C62.0287 9.12887 62.1073 8.81431 62.1073 8.4312C62.1073 8.04808 62.0287 7.73151 61.8714 7.48148C61.7141 7.22741 61.4822 7.03787 61.1757 6.91286C60.8693 6.78381 60.4922 6.71928 60.0446 6.71928H58.5686V16.6944H55.5742ZM62.5489 11.0323L65.634 16.6944H62.3674L59.3429 11.0323H62.5489Z" fill="white"/>
<path d="M53.8261 10.5C53.8261 11.863 53.564 13.0184 53.0397 13.9661C52.5155 14.9138 51.8057 15.6337 50.9104 16.1257C50.0192 16.6177 49.0191 16.8637 47.91 16.8637C46.797 16.8637 45.7948 16.6157 44.9036 16.1196C44.0124 15.6236 43.3046 14.9038 42.7803 13.9601C42.2601 13.0124 42 11.859 42 10.5C42 9.13688 42.2601 7.98149 42.7803 7.03378C43.3046 6.08608 44.0124 5.36623 44.9036 4.87423C45.7948 4.38223 46.797 4.13623 47.91 4.13623C49.0191 4.13623 50.0192 4.38223 50.9104 4.87423C51.8057 5.36623 52.5155 6.08608 53.0397 7.03378C53.564 7.98149 53.8261 9.13688 53.8261 10.5ZM50.7652 10.5C50.7652 9.6934 50.6503 9.01186 50.4204 8.45534C50.1946 7.89881 49.868 7.47739 49.4405 7.19106C49.017 6.90473 48.5069 6.76157 47.91 6.76157C47.3172 6.76157 46.8071 6.90473 46.3796 7.19106C45.9521 7.47739 45.6235 7.89881 45.3936 8.45534C45.1677 9.01186 45.0548 9.6934 45.0548 10.5C45.0548 11.3065 45.1677 11.9881 45.3936 12.5446C45.6235 13.1011 45.9521 13.5225 46.3796 13.8089C46.8071 14.0952 47.3172 14.2383 47.91 14.2383C48.5069 14.2383 49.017 14.0952 49.4405 13.8089C49.868 13.5225 50.1946 13.1011 50.4204 12.5446C50.6503 11.9881 50.7652 11.3065 50.7652 10.5Z" fill="white"/>
<rect x="42" y="20.8638" width="85" height="13" rx="6.5" fill="#D82C53"/>
<path d="M109.706 27.4721V30.378H108.084V25.2827H109.627V26.2181H109.683C109.796 25.9063 109.988 25.6619 110.26 25.485C110.532 25.3059 110.856 25.2163 111.232 25.2163C111.59 25.2163 111.901 25.297 112.164 25.4585C112.43 25.6177 112.635 25.8411 112.781 26.1286C112.929 26.4138 113.002 26.7478 113 27.1304V30.378H111.378V27.4488C111.38 27.1658 111.308 26.9446 111.162 26.7854C111.019 26.6262 110.819 26.5465 110.562 26.5465C110.392 26.5465 110.241 26.5841 110.111 26.6593C109.983 26.7323 109.883 26.8374 109.812 26.9745C109.744 27.1116 109.708 27.2774 109.706 27.4721Z" fill="white"/>
<path d="M105.428 30.3779V25.2826H107.05V30.3779H105.428ZM106.241 24.6888C106.013 24.6888 105.817 24.6136 105.654 24.4632C105.49 24.3106 105.408 24.1271 105.408 23.9126C105.408 23.7003 105.49 23.5189 105.654 23.3685C105.817 23.2159 106.013 23.1396 106.241 23.1396C106.471 23.1396 106.667 23.2159 106.828 23.3685C106.992 23.5189 107.073 23.7003 107.073 23.9126C107.073 24.1271 106.992 24.3106 106.828 24.4632C106.667 24.6136 106.471 24.6888 106.241 24.6888Z" fill="white"/>
<path d="M96.7812 30.378V25.2827H98.3238V26.2181H98.3802C98.4863 25.9085 98.6655 25.6641 98.9176 25.485C99.1697 25.3059 99.4705 25.2163 99.8199 25.2163C100.174 25.2163 100.477 25.307 100.729 25.4883C100.981 25.6697 101.141 25.9129 101.21 26.2181H101.263C101.358 25.9151 101.544 25.673 101.82 25.4916C102.097 25.3081 102.423 25.2163 102.799 25.2163C103.281 25.2163 103.672 25.3711 103.973 25.6807C104.274 25.9881 104.424 26.4105 104.424 26.9479V30.378H102.802V27.3195C102.802 27.0651 102.737 26.8716 102.606 26.7389C102.476 26.604 102.307 26.5366 102.099 26.5366C101.875 26.5366 101.7 26.6096 101.571 26.7555C101.445 26.8993 101.382 27.0928 101.382 27.336V30.378H99.8232V27.3029C99.8232 27.0662 99.7591 26.8794 99.6308 26.7423C99.5025 26.6051 99.3333 26.5366 99.1232 26.5366C98.9817 26.5366 98.8568 26.5709 98.7484 26.6394C98.64 26.7058 98.5549 26.8009 98.493 26.9247C98.4333 27.0486 98.4034 27.1945 98.4034 27.3626V30.378H96.7812Z" fill="white"/>
<path d="M92.6657 30.451C92.2898 30.451 91.9481 30.3537 91.6407 30.1591C91.3333 29.9645 91.0878 29.6725 90.9042 29.2833C90.7207 28.8941 90.6289 28.4109 90.6289 27.8337C90.6289 27.2343 90.724 26.7412 90.9142 26.3542C91.1044 25.9671 91.3532 25.6807 91.6606 25.495C91.9702 25.3092 92.303 25.2163 92.6591 25.2163C92.9267 25.2163 93.1556 25.2628 93.3458 25.3557C93.5359 25.4463 93.693 25.5635 93.8168 25.7073C93.9407 25.851 94.0346 26.0003 94.0988 26.1551H94.1319V23.5842H95.7541V30.378H94.1485V29.552H94.0988C94.0302 29.709 93.9329 29.8561 93.8069 29.9932C93.6808 30.1303 93.5227 30.2409 93.3325 30.3249C93.1445 30.409 92.9223 30.451 92.6657 30.451ZM93.2297 29.1871C93.4265 29.1871 93.5946 29.1318 93.7339 29.0212C93.8732 28.9085 93.9805 28.7503 94.0557 28.5469C94.1308 28.3434 94.1684 28.1046 94.1684 27.8303C94.1684 27.5517 94.1308 27.3117 94.0557 27.1105C93.9827 26.9092 93.8754 26.7544 93.7339 26.6461C93.5946 26.5377 93.4265 26.4835 93.2297 26.4835C93.0284 26.4835 92.8581 26.5388 92.7188 26.6494C92.5795 26.76 92.4733 26.9159 92.4003 27.1171C92.3296 27.3184 92.2942 27.5561 92.2942 27.8303C92.2942 28.1046 92.3307 28.3434 92.4036 28.5469C92.4766 28.7503 92.5817 28.9085 92.7188 29.0212C92.8581 29.1318 93.0284 29.1871 93.2297 29.1871Z" fill="white"/>
<path d="M85.3878 30.378H83.623L85.9153 23.5842H88.1014L90.3936 30.378H88.6288L87.0332 25.2959H86.9801L85.3878 30.378ZM85.1523 27.7043H88.8411V28.9516H85.1523V27.7043Z" fill="white"/>
<path d="M80.3594 30.3779V25.2826H81.9351V26.2114H81.9882C82.081 25.8752 82.2325 25.6253 82.4426 25.4617C82.6527 25.2958 82.8971 25.2129 83.1757 25.2129C83.2509 25.2129 83.3283 25.2184 83.408 25.2295C83.4876 25.2383 83.5617 25.2527 83.6302 25.2726V26.6824C83.5528 26.6559 83.4511 26.6349 83.325 26.6194C83.2012 26.6039 83.0906 26.5962 82.9933 26.5962C82.8009 26.5962 82.6273 26.6393 82.4725 26.7256C82.3199 26.8096 82.1994 26.9279 82.1109 27.0805C82.0246 27.2309 81.9815 27.4078 81.9815 27.6113V30.3779H80.3594Z" fill="white"/>
<path d="M77.1127 30.4742C76.5797 30.4742 76.1197 30.3691 75.7327 30.159C75.3479 29.9467 75.0515 29.6449 74.8437 29.2534C74.638 28.8598 74.5352 28.392 74.5352 27.8502C74.5352 27.3239 74.6391 26.8639 74.847 26.4702C75.0549 26.0744 75.3479 25.767 75.7261 25.548C76.1042 25.3269 76.5498 25.2163 77.0629 25.2163C77.4256 25.2163 77.7573 25.2727 78.0581 25.3855C78.3589 25.4983 78.6187 25.6652 78.8377 25.8864C79.0566 26.1076 79.2269 26.3807 79.3485 26.7058C79.4702 27.0286 79.531 27.3991 79.531 27.8171V28.2218H75.1024V27.2797H78.0216C78.0194 27.1072 77.9785 26.9535 77.8989 26.8186C77.8193 26.6837 77.7098 26.5786 77.5705 26.5034C77.4334 26.426 77.2752 26.3873 77.0961 26.3873C76.9147 26.3873 76.7522 26.4282 76.6085 26.51C76.4647 26.5897 76.3508 26.6991 76.2668 26.8385C76.1827 26.9756 76.1385 27.1315 76.1341 27.3062V28.2649C76.1341 28.4728 76.175 28.6552 76.2568 28.8122C76.3386 28.967 76.4548 29.0876 76.6051 29.1738C76.7555 29.2601 76.9347 29.3032 77.1425 29.3032C77.2863 29.3032 77.4168 29.2833 77.534 29.2435C77.6512 29.2037 77.7518 29.1451 77.8358 29.0677C77.9199 28.9903 77.9829 28.8952 78.0249 28.7824L79.5144 28.8255C79.4525 29.1594 79.3165 29.4503 79.1064 29.6979C78.8985 29.9434 78.6254 30.1347 78.287 30.2718C77.9486 30.4067 77.5572 30.4742 77.1127 30.4742Z" fill="white"/>
<path d="M68.7559 32.2887V25.2827H70.3614V26.1551H70.4112C70.4775 26.0003 70.5715 25.851 70.6931 25.7073C70.817 25.5635 70.974 25.4463 71.1642 25.3556C71.3566 25.2628 71.5866 25.2163 71.8542 25.2163C72.208 25.2163 72.5387 25.3092 72.8461 25.495C73.1557 25.6807 73.4056 25.9671 73.5958 26.3541C73.786 26.7411 73.8811 27.2343 73.8811 27.8336C73.8811 28.4108 73.7893 28.8941 73.6057 29.2833C73.4244 29.6725 73.1789 29.9644 72.8693 30.159C72.5619 30.3537 72.2202 30.451 71.8442 30.451C71.5877 30.451 71.3655 30.409 71.1775 30.3249C70.9895 30.2409 70.8314 30.1303 70.7031 29.9932C70.577 29.8561 70.4797 29.709 70.4112 29.552H70.378V32.2887H68.7559ZM70.3448 27.8303C70.3448 28.1046 70.3813 28.3434 70.4543 28.5469C70.5295 28.7503 70.6368 28.9084 70.7761 29.0212C70.9176 29.1318 71.0868 29.1871 71.2836 29.1871C71.4827 29.1871 71.6518 29.1318 71.7912 29.0212C71.9305 28.9084 72.0355 28.7503 72.1063 28.5469C72.1793 28.3434 72.2158 28.1046 72.2158 27.8303C72.2158 27.5561 72.1793 27.3184 72.1063 27.1171C72.0355 26.9159 71.9305 26.7599 71.7912 26.6494C71.6541 26.5388 71.4849 26.4835 71.2836 26.4835C71.0846 26.4835 70.9154 26.5377 70.7761 26.6461C70.6368 26.7544 70.5295 26.9092 70.4543 27.1105C70.3813 27.3117 70.3448 27.5517 70.3448 27.8303Z" fill="white"/>
<path d="M66.1058 28.1787V25.2827H67.7246V30.3781H66.1788V29.4293H66.1257C66.0129 29.7411 65.8205 29.9888 65.5485 30.1724C65.2787 30.3537 64.9525 30.4444 64.5699 30.4444C64.2227 30.4444 63.9175 30.3648 63.6543 30.2056C63.3911 30.0463 63.1866 29.8241 63.0406 29.5388C62.8947 29.2513 62.8206 28.9151 62.8184 28.5303V25.2827H64.4405V28.2119C64.4427 28.4883 64.5157 28.7061 64.6594 28.8654C64.8032 29.0246 64.9989 29.1042 65.2466 29.1042C65.408 29.1042 65.5529 29.0688 65.6812 28.9981C65.8116 28.9251 65.9145 28.82 65.9897 28.6829C66.0671 28.5436 66.1058 28.3755 66.1058 28.1787Z" fill="white"/>
<path d="M60.323 25.6209C60.3009 25.3776 60.2025 25.1886 60.0278 25.0536C59.8553 24.9165 59.6087 24.848 59.288 24.848C59.0757 24.848 58.8988 24.8756 58.7573 24.9309C58.6157 24.9862 58.5096 25.0625 58.4388 25.1598C58.368 25.2549 58.3316 25.3644 58.3293 25.4882C58.3249 25.5899 58.3448 25.6795 58.389 25.7569C58.4355 25.8343 58.5018 25.9029 58.5881 25.9626C58.6765 26.0201 58.7827 26.0709 58.9065 26.1152C59.0304 26.1594 59.1697 26.1981 59.3245 26.2313L59.9084 26.364C60.2445 26.437 60.5409 26.5343 60.7974 26.6559C61.0561 26.7775 61.2729 26.9224 61.4476 27.0905C61.6245 27.2585 61.7583 27.452 61.849 27.671C61.9396 27.8899 61.9861 28.1354 61.9883 28.4074C61.9861 28.8364 61.8777 29.2047 61.6632 29.5121C61.4487 29.8195 61.1402 30.055 60.7377 30.2186C60.3374 30.3823 59.8542 30.4641 59.288 30.4641C58.7197 30.4641 58.2243 30.379 57.8019 30.2087C57.3795 30.0384 57.0511 29.7797 56.8167 29.4325C56.5822 29.0852 56.4617 28.6463 56.4551 28.1155H58.0275C58.0407 28.3344 58.0993 28.5169 58.2033 28.6628C58.3072 28.8088 58.4499 28.9194 58.6312 28.9946C58.8148 29.0698 59.0271 29.1074 59.2681 29.1074C59.4893 29.1074 59.6773 29.0775 59.8321 29.0178C59.9891 28.9581 60.1096 28.8751 60.1936 28.769C60.2777 28.6628 60.3208 28.5412 60.323 28.4041C60.3208 28.2758 60.281 28.1664 60.2036 28.0757C60.1262 27.9828 60.0068 27.9032 59.8453 27.8368C59.6861 27.7683 59.4826 27.7053 59.235 27.6478L58.5251 27.4819C57.9368 27.347 57.4735 27.1292 57.1351 26.8284C56.7968 26.5254 56.6287 26.1163 56.6309 25.601C56.6287 25.1808 56.7415 24.8126 56.9693 24.4963C57.197 24.1801 57.5122 23.9335 57.9147 23.7566C58.3172 23.5797 58.7761 23.4912 59.2913 23.4912C59.8177 23.4912 60.2744 23.5808 60.6614 23.7599C61.0506 23.9368 61.3525 24.1856 61.567 24.5063C61.7815 24.827 61.891 25.1985 61.8954 25.6209H60.323Z" fill="white"/>
<defs>
<clipPath id="clip0_852_349">
<rect width="38" height="38" fill="white"/>
</clipPath>
</defs>
</svg>
